<?xml version="1.0" encoding="UTF-8" standalone="no"?>
<!-- Created with Inkscape (http://www.inkscape.org/) -->

<svg
   width="210mm"
   height="210mm"
   viewBox="0 0 210 210"
   version="1.1"
   id="svg5"
   inkscape:version="1.1.2 (0a00cf5339, 2022-02-04)"
   sodipodi:docname="take-damage-button.svg"
   xmlns:inkscape="http://www.inkscape.org/namespaces/inkscape"
   xmlns:sodipodi="http://sodipodi.sourceforge.net/DTD/sodipodi-0.dtd"
   xmlns="http://www.w3.org/2000/svg"
   xmlns:svg="http://www.w3.org/2000/svg">
  <sodipodi:namedview
     id="namedview7"
     pagecolor="#ffffff"
     bordercolor="#666666"
     borderopacity="1.0"
     inkscape:pageshadow="2"
     inkscape:pageopacity="0.0"
     inkscape:pagecheckerboard="0"
     inkscape:document-units="mm"
     showgrid="false"
     height="210mm"
     inkscape:zoom="0.5499273"
     inkscape:cx="837.38341"
     inkscape:cy="147.2922"
     inkscape:window-width="2486"
     inkscape:window-height="1315"
     inkscape:window-x="74"
     inkscape:window-y="27"
     inkscape:window-maximized="1"
     inkscape:current-layer="layer2" />
  <defs
     id="defs2" />
  <g
     inkscape:label="Layer 1"
     inkscape:groupmode="layer"
     id="layer1"
     style="display:inline">
    <circle
       style="fill:#0000ff;fill-rule:evenodd;stroke-width:0.264583"
       id="path34"
       cx="105.14553"
       cy="105.1524"
       r="103.93018" />
  </g>
  <g
     inkscape:groupmode="layer"
     id="layer2"
     inkscape:label="Layer 2">
    <path
       d="m 64.55562,163.02347 c 0.33435,-0.29763 0.50725,-0.76889 0.80822,-2.20297 0.26333,-1.25475 0.40561,-1.63475 0.8535,-2.27967 l 0.29367,-0.42285 0.21832,0.70163 c 0.12008,0.38589 0.32021,0.92576 0.44474,1.19969 l 0.22641,0.49806 0.23766,-0.7276 0.23766,-0.72761 0.95651,-0.24825 c 0.52609,-0.13654 1.35559,-0.43523 1.84334,-0.66376 l 0.88682,-0.41551 0.20594,-0.72358 c 0.26715,-0.93865 0.44841,-1.32047 0.81312,-1.7128 l 0.29763,-0.32017 0.83383,0.18725 c 0.94083,0.21127 1.28342,0.1287 1.72727,-0.41627 0.13495,-0.1657 0.43366,-0.33957 0.71427,-0.41575 0.479652,-0.13021 1.664972,-0.90807 1.664972,-1.09262 0,-0.2827 -0.79294,-0.76926 -1.601552,-0.98273 -0.31484,-0.0831 -0.75444,-0.25619 -0.97687,-0.38462 l -0.40444,-0.23348 0.70037,-0.79845 0.70037,-0.79844 -0.14455,-0.47392 c -0.0795,-0.26066 -0.19681,-1.20152 -0.2607,-2.0908 -0.0639,-0.88928 -0.15716,-1.61687 -0.20729,-1.61687 -0.32323,0 -0.82168,-0.43746 -1.1336,-0.99489 -0.19142,-0.34209 -0.57397,-0.94603 -0.85011,-1.34207 -0.27615,-0.39605 -0.49403,-0.77239 -0.48419,-0.83632 0.20534,-1.3341 0.23285,-1.40085 0.85272,-2.06915 0.80543,-0.86835 0.73866,-0.94697 -0.80205,-0.94438 -0.75933,0.001 -1.22998,0.0513 -1.37973,0.14668 -0.20614,0.13128 -0.26294,0.10826 -0.61112,-0.24772 -0.60179,-0.61526 -1.05742,-0.91826 -2.1083,-1.40204 -1.56472,-0.72034 -2.32498,-1.34439 -2.32498,-1.90844 0,-0.11796 -0.0144,-0.21446 -0.032,-0.21446 -0.0176,0 -0.36126,0.12786 -0.76366,0.28413 -0.4024,0.15627 -1.48544,0.53636 -2.40675,0.84464 -1.01481,0.33957 -2.06141,0.7772 -2.6551,1.11023 -0.53899,0.30235 -1.00777,0.51186 -1.04172,0.46559 -0.034,-0.0463 -0.21251,-0.30994 -0.39679,-0.58592 -0.45272,-0.67804 -1.20733,-1.67667 -1.23948,-1.64029 -0.0143,0.0162 0.0129,0.22881 0.0603,0.47247 0.0475,0.24365 0.13366,0.92991 0.19146,1.52501 l 0.10508,1.082 -0.43127,0.70215 c -0.23719,0.38618 -0.55329,0.97813 -0.70243,1.31544 -0.66477,1.50354 -1.96778,3.21989 -2.77527,3.65566 -0.18237,0.0984 -0.31736,0.20683 -0.29997,0.24092 0.0174,0.0341 0.16837,0.38815 0.3355,0.7868 0.40071,0.95577 0.53822,1.7648 0.51494,3.02972 -0.0176,0.95712 0.008,1.11664 0.32386,1.99378 l 0.34301,0.95344 -0.38949,0.49618 c -0.46871,0.5971 -2.73234,3.96642 -2.73234,4.06698 0,0.12024 0.58281,-0.0657 1.45941,-0.46564 l 0.83728,-0.38199 0.25579,0.27045 c 0.37071,0.39195 0.875,0.65273 1.26219,0.65273 0.20561,0 0.75702,-0.22922 1.41039,-0.58631 1.19025,-0.65049 1.26887,-0.6459 1.48254,0.0868 0.13261,0.45474 0.0806,1.2318 -0.1912,2.85563 -0.13331,0.79652 -0.14928,1.05552 -0.0584,0.94782 0.11317,-0.13417 1.08376,-2.00858 1.15066,-2.22215 0.0153,-0.049 0.30214,0.0601 0.6373,0.24253 0.33515,0.18242 0.9306,0.42103 1.32323,0.53025 l 0.71387,0.19858 0.33128,1.10885 c 0.18221,0.60986 0.37842,1.53536 0.43604,2.05667 0.12806,1.15883 0.24307,1.30088 0.7139,0.88177 z m -0.51109,-9.58259 c -0.0928,-0.18668 -0.278,-0.3648 -0.4142,-0.39837 -0.38952,-0.096 -0.97584,-0.39901 -1.10016,-0.56853 -0.0749,-0.10209 -0.21058,-0.1309 -0.39761,-0.0844 -0.37804,0.094 -0.5979,-0.11673 -0.52323,-0.50145 0.0435,-0.22419 -0.004,-0.3586 -0.20227,-0.56765 -0.14262,-0.15065 -0.34953,-0.47308 -0.45981,-0.71652 -0.11028,-0.24344 -0.28828,-0.57697 -0.39556,-0.74117 -0.16389,-0.25087 -0.17866,-0.35826 -0.0925,-0.67247 0.0564,-0.20566 0.15167,-0.77536 0.21172,-1.266 0.17052,-1.39333 0.34842,-2.20749 0.50249,-2.29963 0.0777,-0.0465 0.26811,-0.11494 0.42305,-0.1521 0.15493,-0.0372 0.51107,-0.31306 0.7914,-0.61309 0.66848,-0.71546 1.53284,-1.22878 2.06541,-1.22661 0.42675,0.002 1.56991,0.37115 2.33022,0.75298 0.61937,0.31105 2.01007,1.94471 2.15906,2.53626 0.0616,0.24455 0.13927,0.92413 0.17261,1.51018 l 0.0606,1.06553 -0.39814,0.94163 c -0.21897,0.5179 -0.50228,1.07788 -0.62957,1.24441 -0.12728,0.16653 -0.71235,0.63358 -1.30015,1.03789 -0.89482,0.61548 -1.1549,0.7422 -1.59829,0.77874 -0.29127,0.024 -0.61665,0.0964 -0.72308,0.16083 -0.27374,0.16579 -0.2948,0.15615 -0.48202,-0.22044 z"
       style="fill:#ffffff;stroke-width:0.0277341"
       id="path454"
       sodipodi:nodetypes="csscsscccsscsscsssssccccssssscscsssssssscsccscssssssscssscsssssscsscssccssssssssssssccssscssscss" />
    <path
       d="m 62.688272,62.490997 c 0.502195,-0.610661 0.7402,-0.621112 2.795747,-0.122784 0.760154,0.184286 1.744113,0.248766 3.454466,0.226377 2.070198,-0.02712 2.498664,0.0131 3.188736,0.299136 0.438446,0.181748 1.02838,0.383607 1.310964,0.448579 0.282578,0.06498 0.894416,0.496469 1.35963,0.958881 l 0.845853,0.840749 0.389174,-0.321072 c 0.214044,-0.176592 0.744104,-0.880973 1.177923,-1.565298 0.944011,-1.489156 1.435968,-1.945731 2.114504,-1.962444 0.279424,-0.0069 1.305243,0.354237 2.279574,0.802484 2.70904,1.246312 2.568702,1.249094 2.568702,-0.05099 0,-0.863918 -0.102377,-1.28518 -0.487163,-2.004565 -0.65535,-1.225203 -0.680069,-2.973811 -0.06635,-4.694547 l 0.420805,-1.179883 h 1.489269 c 1.73372,0 2.357647,0.200278 3.316672,1.06464 l 0.687306,0.619462 -0.07606,-0.598555 c -0.06887,-0.541937 -0.04172,-0.588794 0.287035,-0.495344 0.493862,0.140387 2.173108,0.940774 2.930772,1.396904 l 0.619,0.372659 -0.429753,-0.569599 c -0.236372,-0.313282 -1.598458,-1.631492 -3.02687,-2.929363 -3.396591,-3.086185 -3.538822,-3.27169 -3.538822,-4.615526 0,-0.581296 -0.0843,-1.613736 -0.187341,-2.294302 -0.103038,-0.680566 -0.139461,-1.375985 -0.08094,-1.545376 0.159327,-0.461164 1.086165,-1.231789 1.873998,-1.558156 0.383492,-0.158865 0.697263,-0.341227 0.697263,-0.405245 0,-0.167182 -1.168873,-0.853973 -2.492153,-1.464308 -0.626704,-0.289054 -1.618764,-0.813572 -2.204575,-1.1656 -0.923117,-0.554718 -1.168995,-0.81891 -1.844249,-1.981676 -0.730643,-1.258112 -0.772656,-1.399377 -0.674922,-2.269296 0.08313,-0.739938 0.05303,-0.927667 -0.148707,-0.927667 -0.31155,0 -0.320455,0.08229 0.101462,-0.937515 0.510151,-1.23303 0.446456,-1.326706 -0.398678,-0.586334 -0.414091,0.362763 -1.017757,0.826178 -1.341471,1.029814 -0.622635,0.39167 -2.158611,0.883155 -2.155363,0.689678 0.0014,-0.06285 0.120427,-0.47314 0.265268,-0.91176 0.144846,-0.438619 0.425145,-1.830066 0.622884,-3.092106 0.197745,-1.262037 0.470973,-2.733418 0.607188,-3.269727 0.136214,-0.536313 0.211947,-1.00792 0.168304,-1.048014 -0.130895,-0.120248 -1.796503,1.446364 -3.016109,2.836837 -0.824071,0.939517 -1.297328,1.677325 -1.700101,2.650459 l -0.55816,1.348518 -0.554106,-0.825272 c -0.550485,-0.819871 -0.556244,-0.823104 -0.880332,-0.49412 -0.667817,0.677907 -0.80239,0.460873 -1.245552,-2.008831 -0.06227,-0.347151 -0.307023,-1.033678 -0.54384,-1.525617 -0.236828,-0.491937 -0.430591,-1.063637 -0.430591,-1.270444 0,-0.206806 -0.08921,-0.582174 -0.198267,-0.834146 l -0.198268,-0.458138 -0.173915,0.488228 c -0.09565,0.268526 -0.595161,1.476887 -1.110023,2.685249 -0.514863,1.208361 -1.047745,2.488794 -1.184193,2.845406 -0.232619,0.608002 -1.149121,1.385897 -1.632826,1.385897 -0.106396,0 -0.632711,-0.45033 -1.169576,-1.000736 -2.040295,-2.091732 -3.170449,-3.140517 -3.277853,-3.041847 -0.0612,0.05622 -0.128273,1.355048 -0.149035,2.886272 -0.03729,2.751926 -0.04299,2.78887 -0.493044,3.202294 l -0.455281,0.418253 -0.576436,-1.679659 c -0.712194,-2.075256 -1.546782,-3.54659 -2.614367,-4.609024 l -0.817656,-0.813712 0.131487,0.732342 c 0.07232,0.402787 0.199217,1.647766 0.281995,2.766618 0.08277,1.118856 0.293243,2.473688 0.467715,3.010738 0.330516,1.017398 0.406036,2.361297 0.187468,3.336215 l -0.1277,0.569604 -1.992683,0.0019 c -1.576906,0.0013 -2.114575,0.06236 -2.576753,0.292923 l -0.584042,0.291342 0.45964,0.501835 c 0.648774,0.708305 1.086594,1.568387 1.195007,2.347532 l 0.09303,0.668596 -1.180719,-0.07761 c -1.385869,-0.0911 -1.659655,0.08919 -1.714545,1.128991 -0.01902,0.359654 -0.160786,0.769907 -0.315097,0.911674 -0.256009,0.235185 -0.21127,0.325831 0.510774,1.034966 0.435248,0.42747 0.791361,0.899871 0.791361,1.049774 0,0.715127 -2.147356,1.856992 -3.492302,1.856992 -0.606533,0 -1.496217,0.386153 -1.963685,0.8523 l -0.40718,0.406019 1.37529,0.599996 c 1.105234,0.482182 1.680887,0.88424 2.931588,2.047509 0.855959,0.79613 1.556289,1.524604 1.556289,1.618836 0,0.09422 -0.239156,0.171327 -0.531455,0.171327 -0.2923,0 -0.531456,0.05277 -0.531456,0.117335 0,0.06453 0.4487,0.533884 0.997108,1.043001 l 0.997115,0.925659 -0.803334,0.950598 c -0.954102,1.129008 -2.005117,2.058237 -3.258067,2.880513 -0.877787,0.576073 -2.096121,1.704449 -1.967702,1.822418 0.03382,0.03106 0.81015,-0.159186 1.725231,-0.422747 0.915083,-0.263552 2.487233,-0.622592 3.493682,-0.797855 1.006448,-0.17527 2.238997,-0.507431 2.73901,-0.738144 0.500001,-0.230709 0.941349,-0.389851 0.980765,-0.35364 0.03943,0.03622 -0.08941,0.45524 -0.286259,0.93119 l -0.357929,0.865356 0.976751,-0.885906 c 0.537213,-0.487249 1.190159,-1.178844 1.450996,-1.536876 0.26083,-0.358036 0.505069,-0.687591 0.54275,-0.732344 0.188211,-0.223542 1.333531,1.346449 1.998381,2.739369 0.413026,0.86532 0.945621,1.976092 1.183537,2.468391 l 0.432577,0.895084 0.352184,-1.057831 c 0.193701,-0.581801 0.553538,-1.302673 0.799644,-1.601932 z m 6.338789,-7.503556 c -2.217078,-0.09202 -2.350485,-0.118136 -3.576701,-0.699936 -0.70055,-0.332388 -1.418014,-0.794855 -1.594367,-1.027704 -0.176353,-0.232842 -0.550966,-0.618613 -0.832479,-0.857268 -0.281505,-0.238649 -0.857795,-0.909932 -1.280642,-1.491739 -0.422841,-0.581801 -0.885588,-1.20429 -1.02833,-1.383306 -0.142735,-0.179021 -0.311654,-0.874743 -0.375376,-1.546057 -0.108631,-1.144337 -0.0769,-1.308855 0.508049,-2.634281 0.556937,-1.261954 0.778901,-1.552512 2.067699,-2.70664 0.801679,-0.717914 1.772814,-1.419971 2.183598,-1.578585 0.406898,-0.157105 1.147328,-0.45917 1.645407,-0.67124 l 0.905588,-0.385587 1.840264,0.35172 c 1.01214,0.19344 2.198993,0.395275 2.63745,0.448518 0.640937,0.07783 0.807844,0.165569 0.851605,0.447669 0.03168,0.204302 0.221495,0.389387 0.454378,0.443079 0.219974,0.05074 0.700037,0.492489 1.066809,0.981705 0.368225,0.491162 0.764743,0.854983 0.885434,0.812437 0.693213,-0.244376 1.181697,1.320799 1.455984,4.665176 l 0.114375,1.394536 -0.621572,0.802483 c -0.341867,0.44137 -0.794006,1.117034 -1.004755,1.501476 -0.210746,0.384444 -0.675797,0.996539 -1.033442,1.360209 -0.661859,0.673008 -2.564218,1.952145 -2.823422,1.898456 -0.07842,-0.01625 -1.178919,-0.07255 -2.445554,-0.125121 z"
       style="fill:#ffffff;stroke-width:0.0118863"
       id="path1251" />
    <path
       d="m 135.0581,38.399885 c 0.19771,0.23827 0.67329,0.674261 1.05686,0.968871 1.01206,0.777353 1.52567,1.236557 1.51748,1.356738 -0.004,0.05802 -0.66012,0.341418 -1.45812,0.629778 -1.18058,0.426602 -1.67286,0.538588 -2.64189,0.60097 l -1.19096,0.07666 0.81997,0.585957 c 0.62861,0.449267 1.01341,0.650683 1.64896,0.86346 0.45596,0.152619 0.92587,0.313409 1.04426,0.357297 0.25234,0.09355 0.23079,0.664034 -0.0837,2.218066 -0.30655,1.514724 -0.18291,3.029375 0.32536,3.985886 0.27071,0.509422 1.45391,1.62596 2.40373,2.268295 l 0.68479,0.463315 -0.0208,0.791811 c -0.0114,0.435504 0.056,1.485945 0.14991,2.334336 0.16835,1.521458 0.17771,1.551983 0.68401,2.234739 0.51028,0.688132 1.29778,1.614958 1.47021,1.730344 0.0496,0.03321 0.14301,-0.210401 0.20795,-0.541084 0.0647,-0.330806 0.30084,-1.120316 0.52463,-1.754458 0.2238,-0.634143 0.44466,-1.444195 0.4908,-1.800109 0.0462,-0.355922 0.11805,-0.696182 0.15979,-0.756153 0.0418,-0.05997 0.27174,-0.133061 0.51108,-0.162443 0.62187,-0.07633 2.4903,0.150061 2.48005,0.300483 -0.0319,0.468468 1.02092,1.586354 2.30045,2.442554 l 0.58792,0.393417 0.001,-0.37973 c 0.002,-0.76771 0.27505,-1.852332 0.638,-2.536156 0.41748,-0.786522 1.24305,-1.763668 1.63903,-1.939986 0.1444,-0.0643 0.58499,-0.356851 0.97909,-0.650126 0.79764,-0.593577 0.95775,-0.629007 2.42966,-0.537619 0.8002,0.04969 2.37078,0.415639 3.57089,0.83204 0.42098,0.146064 0.43949,0.141222 0.41079,-0.107459 -0.0632,-0.547774 -0.7475,-1.65193 -1.57376,-2.539418 -0.51667,-0.554937 -0.98162,-1.174681 -1.23941,-1.652035 -0.3776,-0.699188 -0.40491,-0.824301 -0.32218,-1.47638 0.0497,-0.391848 0.18186,-1.015641 0.29369,-1.386221 0.11182,-0.370574 0.15649,-0.701621 0.0993,-0.735662 -0.0572,-0.03405 -0.30929,-0.153681 -0.56017,-0.265822 -0.25089,-0.112145 -0.4374,-0.230849 -0.41447,-0.263787 0.0556,-0.07983 1.89378,-0.420105 2.37705,-0.440034 l 0.38182,-0.01573 -0.21531,-0.404325 c -0.11842,-0.222384 -0.34335,-0.563435 -0.49986,-0.757877 -0.24305,-0.301987 -0.28672,-0.52001 -0.29943,-1.494875 l -0.0148,-1.141316 0.93958,-1.427633 c 0.78452,-1.191973 0.96518,-1.529437 1.0947,-2.04424 0.0853,-0.339131 0.15401,-0.728986 0.15266,-0.866353 -0.002,-0.232659 -0.0283,-0.227379 -0.38033,0.07718 -0.31556,0.272997 -0.63249,0.374718 -1.92129,0.616682 l -1.54336,0.289713 0.10803,-0.505202 c 0.0594,-0.277859 0.0804,-0.523684 0.0467,-0.546276 -0.12476,-0.08348 -1.62167,0.363263 -2.21621,0.661422 -0.33778,0.169395 -0.63067,0.278949 -0.65085,0.243454 -0.0201,-0.03549 -0.23261,-0.437298 -0.47204,-0.892914 -0.23943,-0.455616 -0.57459,-0.991586 -0.74481,-1.191052 -0.44726,-0.524126 -0.62538,-0.895996 -0.75016,-1.566214 -0.10566,-0.56759 -0.11965,-0.587817 -0.32882,-0.475689 -0.39092,0.209554 -1.18305,0.956986 -1.50622,1.42122 l -0.31578,0.453603 -0.44144,-0.134592 c -0.2428,-0.07403 -0.97912,-0.201455 -1.63627,-0.283192 l -1.19481,-0.148598 -0.29949,-0.779732 c -0.16472,-0.428859 -0.48529,-1.408191 -0.71237,-2.176288 -0.37722,-1.275951 -0.68575,-1.9016 -1.24,-2.514568 -0.25507,-0.28209 -0.32368,-0.178475 -0.58559,0.884379 -0.32364,1.313239 -0.52259,2.77286 -0.57951,4.251625 -0.062,1.611796 -0.22226,2.728701 -0.51016,3.556301 l -0.20984,0.603213 -0.67287,0.09199 c -0.37007,0.0506 -1.06004,0.159784 -1.53325,0.242662 -1.07026,0.187413 -1.87516,0.204569 -2.81987,0.06011 -0.40292,-0.0616 -0.7454,-0.09362 -0.76103,-0.07117 -0.0156,0.02248 0.13333,0.235801 0.33103,0.474081 z m 7.52173,1.706861 c 0.49611,-0.365278 0.87963,-0.509353 1.36052,-0.511112 0.23207,-8.39e-4 0.64856,-0.10329 0.92552,-0.227644 0.80833,-0.362926 1.48271,-0.351345 2.92202,0.05018 1.26072,0.351712 1.30543,0.372802 1.73717,0.819564 0.86436,0.89446 1.47632,2.342181 1.5137,3.581004 0.0455,1.505705 0.0125,1.629938 -0.75178,2.836988 -1.22137,1.928928 -1.14986,1.855007 -2.28292,2.359564 -1.03816,0.462288 -1.73475,0.560076 -3.17535,0.445751 -0.29533,-0.02343 -0.66896,-0.008 -0.83031,0.03423 -0.30421,0.07968 -0.60595,-0.04396 -0.59241,-0.242734 0.004,-0.06287 -0.52899,-0.461317 -1.18523,-0.885606 -1.17554,-0.760026 -1.19329,-0.776221 -1.21211,-1.105641 -0.0105,-0.183857 -0.0656,-0.619466 -0.12231,-0.968002 -0.0567,-0.348522 -0.0704,-1.066071 -0.0302,-1.594538 0.0401,-0.528463 0.0654,-1.126541 0.0563,-1.329061 -0.009,-0.202525 0.053,-0.505225 0.13806,-0.672678 0.085,-0.167473 0.35859,-0.725269 0.60781,-1.239613 0.53298,-1.099967 0.48446,-1.028856 0.92152,-1.350671 z"
       style="fill:#ffffff;stroke-width:0.00738541"
       id="path1131" />
    <path
       d="m 124.29544,136.31707 c 0.12511,-0.42082 0.26412,-1.32259 0.30891,-2.00394 0.11821,-1.79776 0.25459,-2.76224 0.40294,-2.8496 0.0716,-0.0422 0.92454,0.48895 1.89538,1.18026 1.43626,1.02272 1.95736,1.50228 2.79652,2.57362 l 1.03134,1.3167 0.044,-1.42121 c 0.0338,-1.08958 -0.0324,-1.69726 -0.28328,-2.60433 -0.18002,-0.65072 -0.36142,-1.32418 -0.40313,-1.49657 -0.0889,-0.36744 0.60161,-0.80218 2.68469,-1.69033 2.0304,-0.86567 3.72087,-2.22921 4.44856,-3.58823 0.38755,-0.7238 0.77099,-2.99295 0.77897,-4.60988 l 0.006,-1.16593 0.9512,-0.61395 c 0.52317,-0.33768 1.70998,-1.26217 2.6374,-2.05442 1.66318,-1.42078 1.69183,-1.4562 2.0979,-2.59235 0.40927,-1.14509 0.88134,-2.80337 0.88134,-3.09593 0,-0.0842 -0.36137,0.004 -0.80306,0.19529 -0.44169,0.1916 -1.56026,0.55449 -2.4857,0.80642 -0.92544,0.25193 -2.05623,0.649 -2.51286,0.88237 -0.45664,0.23338 -0.91514,0.42432 -1.01892,0.42432 -0.10378,0 -0.37175,-0.2073 -0.59551,-0.46065 -0.58137,-0.65828 -1.79013,-3.00331 -1.60445,-3.11265 0.57828,-0.34051 1.06628,-2.45988 1.06628,-4.63075 v -0.9975 l -0.44915,0.30471 c -0.90806,0.61606 -2.40407,1.17418 -3.4981,1.30506 -1.25833,0.15055 -3.0641,-0.0177 -3.58507,-0.33393 -0.18998,-0.11534 -0.88342,-0.38957 -1.54098,-0.60942 -1.33087,-0.44494 -1.49918,-0.60171 -2.55407,-2.37901 -0.57349,-0.96624 -1.38218,-3.078963 -1.83866,-4.803555 -0.16013,-0.604957 -0.18046,-0.622468 -0.45137,-0.388871 -0.59674,0.514544 -1.3597,2.196236 -1.75471,3.867686 -0.24698,1.04516 -0.61132,2.08269 -0.97122,2.76569 -0.52714,1.00042 -0.65327,1.13284 -1.48844,1.56251 -0.50187,0.2582 -1.3427,0.60785 -1.86853,0.77702 -0.52582,0.16917 -0.95193,0.38421 -0.94691,0.47787 0.005,0.0937 0.0629,0.48181 0.12871,0.86257 0.0658,0.38075 0.073,0.69227 0.016,0.69227 -0.13814,0 -1.99201,-1.85346 -2.39731,-2.39677 l -0.3202,-0.42925 -0.30724,0.57499 c -0.16899,0.31625 -0.39393,0.8514 -0.49984,1.18923 -0.16451,0.52465 -0.3874,0.75087 -1.52825,1.55108 l -1.33565,0.93683 -2.42766,0.0628 c -2.02695,0.0524 -2.56807,0.1152 -3.27814,0.3801 -0.46776,0.17451 -0.98228,0.40912 -1.14339,0.52136 -0.27287,0.1901 -0.24607,0.21598 0.39157,0.37804 0.57158,0.14528 0.94203,0.43014 2.24581,1.7269 l 1.56125,1.55293 -0.68177,0.28202 c -0.37497,0.15511 -0.68177,0.32888 -0.68177,0.38616 0,0.21167 1.70994,1.5843 2.53161,2.03221 0.46682,0.25447 0.82753,0.5052 0.80157,0.55716 -0.026,0.0519 -0.3325,0.62159 -0.68124,1.26583 -0.34874,0.64424 -0.71671,1.46404 -0.81773,1.82177 -0.26543,0.94001 -0.56374,1.4458 -1.2564,2.13026 -0.5866,0.57964 -0.59943,0.61213 -0.30182,0.76388 0.55621,0.28362 2.06437,0.59823 2.86773,0.59823 h 0.78496 l 0.18984,0.6194 c 0.10441,0.34067 0.53565,1.2956 0.95829,2.12208 l 0.76845,1.50267 -0.68393,0.97492 c -0.37617,0.53621 -1.27909,1.69635 -2.00649,2.57808 -1.20834,1.46472 -1.70323,2.32594 -1.98903,3.46136 -0.13152,0.52253 0.045,0.51845 1.50667,-0.0348 1.80603,-0.68355 3.68637,-1.62937 5.47711,-2.75501 1.95183,-1.22691 3.39698,-1.94141 4.60145,-2.27502 l 0.8779,-0.24316 0.64016,0.70469 c 0.35208,0.38757 1.02604,1.09819 1.49771,1.57913 1.06674,1.08777 1.72285,2.00558 2.29861,3.21543 0.24558,0.516 0.47832,0.9382 0.51718,0.9382 0.0389,0 0.17305,-0.34432 0.29817,-0.76515 z m -3.92696,-10.08134 c -0.82315,-0.2799 -1.29621,-0.60771 -1.67818,-1.1629 -0.18434,-0.26793 -0.63429,-0.66745 -0.99989,-0.88782 -1.06702,-0.64317 -1.5861,-1.43307 -2.24909,-3.42253 -0.58073,-1.74262 -0.59115,-1.81136 -0.40478,-2.67105 0.37313,-1.72118 1.59882,-3.596 3.0318,-4.63745 1.74169,-1.26581 1.91436,-1.32781 3.94313,-1.41577 3.24208,-0.14056 3.09832,-0.16377 4.58908,0.74115 1.36588,0.82912 2.03162,1.5566 3.03469,3.31613 0.20564,0.36071 0.51899,0.78077 0.69634,0.93347 0.33439,0.28791 0.4268,0.73678 0.18143,0.88127 -0.0776,0.0457 -0.12672,0.98399 -0.10921,2.08542 0.0314,1.97303 0.0263,2.00662 -0.34773,2.29384 -0.20875,0.16031 -0.67954,0.575 -1.04617,0.92153 -0.36662,0.34651 -1.20298,0.94043 -1.85856,1.31981 -0.65558,0.37937 -1.38167,0.83194 -1.61353,1.00571 -0.23187,0.17377 -0.6383,0.34577 -0.9032,0.38222 -0.2649,0.0365 -1.13951,0.16933 -1.9436,0.29531 -1.71962,0.26941 -1.59734,0.26827 -2.32253,0.0217 z"
       style="fill:#ffffff;stroke-width:0.0104523"
       id="path1131-7" />
    <path
       d="m 154.11294,166.78752 c 1.9838,-1.87788 2.817,-2.77372 3.15955,-3.39705 l 0.46523,-0.84659 0.44237,0.5551 c 0.24331,0.30531 0.93698,1.0601 1.54151,1.67734 0.60452,0.61722 1.42553,1.55802 1.82445,2.09066 l 0.72533,0.96843 0.34713,-1.14334 c 0.19092,-0.62884 0.41862,-1.32167 0.50599,-1.53962 l 0.15885,-0.39626 0.96163,0.34276 c 0.52889,0.18852 1.24269,0.38714 1.58622,0.44141 l 0.62461,0.0986 0.58673,-0.95589 c 0.56882,-0.9267 1.57444,-1.91874 3.61373,-3.5649 0.5362,-0.43283 1.20659,-1.04238 1.48975,-1.35455 l 0.51485,-0.56757 -0.46016,-0.83157 c -0.25309,-0.45736 -0.51038,-1.06112 -0.57175,-1.34167 -0.13875,-0.63418 -0.5835,-1.48631 -0.91087,-1.74517 -0.21709,-0.17165 -0.1209,-0.24837 0.79189,-0.63158 0.57144,-0.23992 1.32568,-0.46703 1.67608,-0.5047 0.74591,-0.0802 0.85614,-0.29714 0.72036,-1.41791 -0.10666,-0.88044 0.18939,-1.32001 1.2924,-1.91896 0.9864,-0.53561 1.3613,-0.87209 1.96835,-1.76659 0.33138,-0.48828 0.48987,-0.87034 0.4325,-1.04256 -0.0498,-0.14951 -0.66691,-0.78718 -1.37136,-1.41706 -1.08491,-0.97005 -1.2952,-1.23411 -1.37491,-1.72651 -0.37824,-2.33662 -0.53845,-2.89046 -0.95766,-3.31048 -0.61104,-0.61224 -2.71677,-1.92136 -4.00482,-2.4898 l -1.09714,-0.48418 0.48043,-0.64622 c 0.26424,-0.35541 0.96776,-1.11977 1.56339,-1.69856 0.59563,-0.57881 1.04925,-1.08449 1.00803,-1.12376 -0.0412,-0.0393 -0.71837,-0.008 -1.50479,0.0695 -1.18565,0.11687 -1.83267,0.29274 -3.78855,1.02981 -1.29728,0.48888 -2.39606,0.85327 -2.44172,0.80977 -0.1665,-0.15865 -0.3765,-2.52285 -0.2902,-3.26724 0.0488,-0.42083 0.0509,-0.76515 0.005,-0.76515 -0.18164,0 -1.40698,0.64589 -2.03094,1.07052 -0.36244,0.24667 -1.15148,1.04127 -1.75341,1.7658 l -1.09442,1.31731 -0.11501,-0.63374 c -0.0632,-0.34856 -0.2379,-0.87322 -0.3881,-1.16593 -0.26692,-0.52014 -0.29507,-0.53317 -1.24308,-0.57592 -1.20263,-0.0542 -2.06708,0.20703 -3.53167,1.06736 l -1.10876,0.65131 -1.01894,-0.3861 c -1.85454,-0.70271 -4.1106,-1.7576 -5.21592,-2.43887 -0.59944,-0.36945 -1.12216,-0.67174 -1.1616,-0.67174 -0.16672,0 -0.0538,2.19643 0.14529,2.8268 0.11936,0.37785 0.48982,1.12609 0.82325,1.66275 0.33343,0.53666 0.73031,1.31075 0.88195,1.72019 0.27095,0.73163 0.27032,0.75096 -0.0365,1.12263 -0.2963,0.35889 -0.48649,0.90202 -0.77346,2.20868 -0.12075,0.54984 -0.17509,0.59449 -1.11671,0.91745 -0.89389,0.3066 -1.16763,0.33196 -2.82537,0.26174 l -1.8356,-0.0778 0.76483,0.65015 c 0.42066,0.35758 1.16546,0.855 1.65511,1.10537 0.52147,0.26663 0.86031,0.52964 0.81793,0.63489 -0.25138,0.62412 -1.29783,1.92007 -1.94241,2.40552 l -0.75976,0.5722 0.42049,0.317 c 0.23128,0.17434 1.01259,0.58624 1.73624,0.91532 l 1.31573,0.59832 -0.28099,0.60521 c -0.15454,0.33286 -0.36055,1.12257 -0.45778,1.75492 -0.16813,1.09326 -0.21352,1.18491 -0.9244,1.86695 -0.41117,0.3945 -0.69212,0.77011 -0.62433,0.8347 0.29642,0.28241 2.04859,0.73549 3.13931,0.81174 1.06752,0.0747 1.17963,0.11062 1.099,0.35266 -0.0494,0.14824 -0.11328,0.8438 -0.14198,1.54568 -0.0287,0.70187 -0.10364,1.43305 -0.16651,1.62483 l -0.11431,0.34869 1.26654,-0.10526 c 0.69659,-0.0579 1.35197,-0.1365 1.4564,-0.17468 0.34417,-0.12584 0.99172,3.20481 0.99559,5.12072 0.002,1.25184 0.21897,2.58882 0.63706,3.93501 l 0.31684,1.0202 0.39195,-0.5101 c 0.21557,-0.28055 1.6044,-1.6578 3.08627,-3.06056 z m 3.82778,-9.46996 c -0.21033,-0.066 -0.72659,-0.12932 -1.14724,-0.14083 -0.42066,-0.0115 -1.01188,-0.10507 -1.31383,-0.2079 -0.66175,-0.22538 -2.73977,-1.79414 -2.73977,-2.06834 0,-0.10718 -0.19838,-0.4769 -0.44084,-0.82159 -0.73529,-1.04531 -1.08882,-1.76608 -1.08882,-2.21987 0,-0.23735 -0.17271,-0.66899 -0.3838,-0.9592 -0.37285,-0.51262 -0.38006,-0.56892 -0.25296,-1.97534 0.12576,-1.39161 0.16433,-1.50462 0.99566,-2.91765 0.47565,-0.80849 0.86482,-1.60304 0.86482,-1.76567 0,-0.50875 0.53352,-0.96826 1.89984,-1.63636 l 1.32011,-0.64549 2.31759,-0.0855 2.3176,-0.0855 1.19877,0.75143 c 0.65932,0.41328 1.49043,0.9785 1.8469,1.25602 0.35647,0.27753 0.85479,0.60594 1.10739,0.7298 0.65284,0.32014 0.89208,0.6449 1.20777,1.63959 0.15265,0.48094 0.33906,1.0251 0.41425,1.20923 0.0752,0.18411 0.13672,0.60525 0.13672,0.93584 0,0.35477 0.10374,0.71027 0.25316,0.86758 0.22968,0.24181 0.23103,0.29018 0.0146,0.52157 -0.13122,0.14028 -0.35189,0.68134 -0.49037,1.20237 -0.13849,0.52103 -0.44034,1.47198 -0.6708,2.11325 -0.37891,1.05436 -0.48637,1.20809 -1.12304,1.60659 -0.38722,0.24236 -1.00802,0.70762 -1.37955,1.03391 -0.65789,0.57778 -0.96106,0.71383 -3.02855,1.35915 -1.38947,0.43367 -1.40856,0.43682 -1.83559,0.30293 z"
       style="fill:#ffffff;stroke-width:0.0104523"
       id="path1011" />
    <path
       d="m 107.31956,89.460129 c 0.81032,-1.29228 1.19271,-2.20605 1.48478,-3.5481 0.4461,-2.04984 1.10825,-3.16723 2.04717,-3.45467 0.34085,-0.10435 0.5601,-0.0968 1.11411,0.0383 0.37937,0.0925 0.70685,0.14981 0.72775,0.12738 0.0209,-0.0224 -0.61096,-0.91478 -1.40414,-1.98301 -0.79317,-1.06821 -1.44213,-1.973 -1.44213,-2.01062 0,-0.0376 0.0684,-0.0684 0.15203,-0.0684 0.30088,0 1.11,-1.01017 1.51536,-1.89188 0.22102,-0.48078 0.40187,-0.92304 0.40187,-0.9828 0,-0.0622 -0.18268,-0.0854 -0.42744,-0.0541 -0.63533,0.081 -0.97484,-0.31541 -1.79845,-2.10008 -0.37143,-0.80485 -0.83602,-1.67106 -1.03241,-1.92491 -0.19639,-0.25384 -0.33608,-0.53681 -0.31041,-0.6288 0.1211,-0.43397 0.75889,-1.765129 1.11544,-2.328099 l 0.39705,-0.62689 -0.4253,-0.14064 c -0.23391,-0.0773 -0.79073,-0.17253 -1.23738,-0.21152 l -0.81207,-0.0709 0.073,-0.6248 c 0.15164,-1.29679 0.0896,-2.01978 -0.24179,-2.81925 -0.16983,-0.40966 -0.49559,-0.97417 -0.7239,-1.25447 -0.41419,-0.50851 -0.65923,-0.66022 -0.55104,-0.34116 0.13519,0.39866 -0.0799,0.90286 -0.67132,1.57337 -0.95357,1.08115 -2.08021,1.60341 -3.45899,1.60341 h -0.70263 l -0.11604,-0.58542 c -0.0638,-0.32198 -0.22862,-0.86006 -0.36621,-1.19573 l -0.25018,-0.61031 -0.19105,0.34146 c -0.251574,0.44965 -0.974384,0.87375 -1.768354,1.03755 -0.83453,0.17217 -1.47298,0.39982 -2.28769,0.81571 l -0.66184,0.33786 -0.34948,-0.34724 c -0.53504,-0.53163 -0.92633,-0.71544 -1.627,-0.76433 -0.838,-0.0585 -0.93577,0.0194 -0.79055,0.62971 0.39993,1.68076 0.50143,3.57685 0.244,4.557849 l -0.15162,0.57778 h -0.43594 c -0.7233,0 -1.85695,0.61684 -2.64117,1.4371 l -0.27646,0.28918 0.60962,0.6404 0.60962,0.6404 -0.068,0.68064 c -0.14294,1.42979 -0.63989,2.77997 -1.32067,3.58824 -0.4259,0.50565 -0.73574,0.54185 -0.95444,0.11152 -0.15276,-0.30058 -0.15466,-0.2945 -0.0962,0.30664 0.0756,0.77797 0.44692,1.70897 0.78001,1.95595 0.14145,0.10489 0.54543,0.25908 0.89772,0.34265 0.86075,0.20418 1.29168,0.47128 1.84982,1.14653 0.45753,0.55353 0.46522,0.57449 0.32427,0.88296 -0.0794,0.17378 -0.15838,0.46104 -0.17548,0.63835 -0.0298,0.30899 -0.0102,0.32588 0.47272,0.40683 1.17476,0.19691 3.91177,1.58251 4.53846,2.29757 0.20746,0.23673 0.52579,0.70732 0.7074,1.04577 0.41055,0.76513 0.72499,0.98468 1.41032,0.98468 0.42096,0 0.55256,0.0451 0.65075,0.22301 0.24758,0.44864 0.567014,0.28334 1.076884,-0.55726 0.91486,-1.50829 1.5081,-1.40506 2.4187,0.42087 0.60336,1.20985 1.1448,1.6134 1.57439,1.17343 0.44818,-0.459 1.09648,-0.1483 1.61709,0.77499 0.12969,0.22999 0.26849,0.41779 0.30846,0.41734 0.04,-4.2e-4 0.33201,-0.41443 0.649,-0.91995 z m -8.065074,-7.32677 c -0.27097,-0.0439 -0.91392,-0.30671 -1.42876,-0.58404 -1.38741,-0.74734 -2.07441,-1.68869 -2.65444,-3.63717 -0.18702,-0.62824 -0.19432,-0.77247 -0.0926,-1.82864 0.13778,-1.43057 0.29277,-1.82775 1.12189,-2.875 0.36416,-0.45997 0.77488,-1.00188 0.91271,-1.20424 0.26294,-0.38605 0.96969,-0.91443 1.22314,-0.91443 0.0817,0 0.23247,-0.105 0.33511,-0.23334 0.36724,-0.45922 0.51271,-0.47546 0.82236,-0.0918 0.26563,0.32911 0.30764,0.34495 0.604324,0.22791 0.43539,-0.17176 0.76181,-0.15807 1.31474,0.0551 0.36409,0.14038 0.52286,0.15325 0.70876,0.0574 0.19572,-0.10092 0.26602,-0.0881 0.38416,0.07 0.43448,0.58138 1.38103,1.51378 2.00624,1.97622 0.44058,0.32589 0.45986,0.363 0.52258,1.00621 0.0358,0.36732 0.13481,1.0191 0.21999,1.44841 0.0852,0.42931 0.15565,1.01564 0.15659,1.30297 10e-4,0.28733 0.0438,0.64763 0.0952,0.80067 0.0732,0.21793 0.0513,0.33895 -0.1011,0.55821 -0.10703,0.15398 -0.27515,0.30889 -0.37361,0.34425 -0.0985,0.0354 -0.30792,0.34429 -0.46547,0.6865 -0.42368,0.92024 -1.10381,1.82058 -1.76789,2.34031 l -0.58783,0.46005 -1.2317,0.0571 c -0.67743,0.0314 -1.453404,0.0212 -1.724384,-0.0227 z"
       style="fill:#ffffff;stroke-width:0.00733796"
       id="path872" />
    <ellipse
       style="fill:#000000;stroke-width:0.245306"
       id="path1789"
       cx="145.64134"
       cy="44.626659"
       rx="5.4890285"
       ry="5.7031798" />
    <ellipse
       style="fill:#000000;stroke-width:0.245306"
       id="path1789-9"
       cx="100.31358"
       cy="76.257805"
       rx="5.4890285"
       ry="5.7031798" />
    <ellipse
       style="fill:#000000;stroke-width:0.350781"
       id="path1789-7"
       cx="122.80882"
       cy="119.07722"
       rx="8.1342278"
       ry="7.8696189" />
    <ellipse
       style="fill:#000000;stroke-width:0.369301"
       id="path1789-7-7"
       cx="158.52701"
       cy="149.50757"
       rx="8.2563887"
       ry="8.5934639" />
    <ellipse
       style="fill:#000000;stroke-width:0.406296"
       id="path1789-7-8"
       cx="68.561661"
       cy="47.032837"
       rx="9.2195616"
       ry="9.314765" />
    <ellipse
       style="fill:#000000;stroke-width:0.245306"
       id="path1789-0"
       cx="64.594856"
       cy="147.94576"
       rx="5.4890285"
       ry="5.7031798" />
  </g>
</svg>
